<?xml version="1.0" encoding="utf-8"?>
<!-- Generator: Adobe Illustrator 16.0.0, SVG Export Plug-In . SVG Version: 6.00 Build 0)  -->
<!DOCTYPE svg PUBLIC "-//W3C//DTD SVG 1.1//EN" "http://www.w3.org/Graphics/SVG/1.1/DTD/svg11.dtd">
<svg version="1.1" id="Layer_1" xmlns="http://www.w3.org/2000/svg" xmlns:xlink="http://www.w3.org/1999/xlink" x="0px" y="0px"
	 width="60px" height="60px" viewBox="0 0 60 60" enable-background="new 0 0 60 60" xml:space="preserve">
<rect x="9.5" y="36" fill="#C74F77" width="40" height="14.667"/>
<path fill="#DC6789" d="M30.25,55.167c0,0-14.832-0.333-14.832-5.333S30.25,44.75,30.25,44.75H30c0,0,14.832,0.084,14.832,5.084
	S30,55.167,30,55.167H30.25z"/>
<path fill="#182E38" d="M30,0C13.432,0,0,13.432,0,30s13.432,30,30,30s30-13.432,30-30S46.568,0,30,0z M30,53.333
	c-10.516,0-15.957-3.59-15.957-13.166c0,0,3.124,2,15.957,2s15.958-2,15.958-2C45.958,49.743,40.519,53.333,30,53.333z"/>
<circle fill="#FFFFFF" cx="20" cy="20" r="5.667"/>
<circle fill="#FFFFFF" cx="40" cy="20" r="5.667"/>
<circle cx="20" cy="20" r="2.833"/>
<circle cx="40" cy="20" r="2.834"/>
</svg>
